<?xml version="1.0" encoding="UTF-8" standalone="no"?>
<svg width="980px" height="400px" viewBox="0 0 980 400" version="1.1" xmlns="http://www.w3.org/2000/svg" xmlns:xlink="http://www.w3.org/1999/xlink">
    <!-- Generator: Sketch 3.6.1 (26313) - http://www.bohemiancoding.com/sketch -->
    <title>logo</title>
    <desc>Created with Sketch.</desc>
    <defs>
        <circle id="path-1" cx="128" cy="128" r="128"></circle>
    </defs>
    <g id="Page-1" stroke="none" stroke-width="1" fill="none" fill-rule="evenodd">
        <g id="Mask-+-Group" transform="translate(362.000000, 72.000000)">
            <mask id="mask-2" fill="white">
                <use xlink:href="#path-1"></use>
            </mask>
            <use id="Mask" fill="#3E4EB8" xlink:href="#path-1"></use>
            <g id="Group" mask="url(#mask-2)">
                <g transform="translate(-1.000000, -1.000000)">
                    <g id="noun_31698_cc" transform="translate(0.000000, 112.500000)">
                        <ellipse id="Oval" fill="#FB4081" cx="16.49" cy="128.907692" rx="16.49" ry="16.4769231"></ellipse>
                        <ellipse id="Oval" fill="#FB4081" cx="16.49" cy="100.8" rx="3.23333333" ry="3.23076923"></ellipse>
                        <ellipse id="Oval" fill="#FB4081" cx="44.62" cy="72.6923077" rx="3.23333333" ry="3.23076923"></ellipse>
                        <ellipse id="Oval" fill="#FB4081" cx="44.62" cy="128.907692" rx="3.23333333" ry="3.23076923"></ellipse>
                        <ellipse id="Oval" fill="#FB4081" cx="44.62" cy="100.8" rx="16.49" ry="16.4769231"></ellipse>
                        <ellipse id="Oval" fill="#FB4081" cx="16.49" cy="72.6923077" rx="16.49" ry="16.4769231"></ellipse>
                        <ellipse id="Oval" fill="#FB4081" cx="16.49" cy="44.5846154" rx="3.23333333" ry="3.23076923"></ellipse>
                        <ellipse id="Oval" fill="#FB4081" cx="44.62" cy="16.4769231" rx="3.23333333" ry="3.23076923"></ellipse>
                        <ellipse id="Oval" fill="#FB4081" cx="16.49" cy="16.4769231" rx="16.49" ry="16.4769231"></ellipse>
                        <ellipse id="Oval" fill="#FB4081" cx="44.62" cy="44.5846154" rx="16.49" ry="16.4769231"></ellipse>
                        <ellipse id="Oval" fill="#FB4081" cx="72.75" cy="128.907692" rx="16.49" ry="16.4769231"></ellipse>
                        <ellipse id="Oval" fill="#FB4081" cx="72.75" cy="100.8" rx="3.23333333" ry="3.23076923"></ellipse>
                        <ellipse id="Oval" fill="#FB4081" cx="100.88" cy="72.6923077" rx="3.23333333" ry="3.23076923"></ellipse>
                        <ellipse id="Oval" fill="#FB4081" cx="100.88" cy="128.907692" rx="3.23333333" ry="3.23076923"></ellipse>
                        <ellipse id="Oval" fill="#FB4081" cx="100.88" cy="100.8" rx="16.49" ry="16.4769231"></ellipse>
                        <ellipse id="Oval" fill="#FB4081" cx="72.75" cy="72.6923077" rx="16.49" ry="16.4769231"></ellipse>
                        <ellipse id="Oval" fill="#FB4081" cx="72.75" cy="44.5846154" rx="3.23333333" ry="3.23076923"></ellipse>
                        <ellipse id="Oval" fill="#FB4081" cx="100.88" cy="16.4769231" rx="3.23333333" ry="3.23076923"></ellipse>
                        <ellipse id="Oval" fill="#FB4081" cx="72.75" cy="16.4769231" rx="16.49" ry="16.4769231"></ellipse>
                        <ellipse id="Oval" fill="#FB4081" cx="129.01" cy="128.907692" rx="16.49" ry="16.4769231"></ellipse>
                        <ellipse id="Oval" fill="#FB4081" cx="129.01" cy="100.8" rx="3.23333333" ry="3.23076923"></ellipse>
                        <ellipse id="Oval" fill="#FB4081" cx="129.01" cy="72.6923077" rx="16.49" ry="16.4769231"></ellipse>
                        <ellipse id="Oval" fill="#FB4081" cx="129.01" cy="44.5846154" rx="3.23333333" ry="3.23076923"></ellipse>
                        <ellipse id="Oval" fill="#FB4081" cx="129.01" cy="16.4769231" rx="16.49" ry="16.4769231"></ellipse>
                        <ellipse id="Oval" fill="#FB4081" cx="100.88" cy="44.5846154" rx="16.49" ry="16.4769231"></ellipse>
                    </g>
                    <g id="noun_31698_cc-copy-2">
                        <ellipse id="Oval" fill="#FB4081" cx="16.49" cy="128.907692" rx="16.49" ry="16.4769231"></ellipse>
                        <ellipse id="Oval" fill="#FB4081" cx="16.49" cy="100.8" rx="3.23333333" ry="3.23076923"></ellipse>
                        <ellipse id="Oval" fill="#FB4081" cx="44.62" cy="72.6923077" rx="3.23333333" ry="3.23076923"></ellipse>
                        <ellipse id="Oval" fill="#FB4081" cx="44.62" cy="128.907692" rx="3.23333333" ry="3.23076923"></ellipse>
                        <ellipse id="Oval" fill="#FB4081" cx="44.62" cy="100.8" rx="16.49" ry="16.4769231"></ellipse>
                        <ellipse id="Oval" fill="#FB4081" cx="16.49" cy="72.6923077" rx="16.49" ry="16.4769231"></ellipse>
                        <ellipse id="Oval" fill="#FB4081" cx="16.49" cy="44.5846154" rx="3.23333333" ry="3.23076923"></ellipse>
                        <ellipse id="Oval" fill="#FB4081" cx="44.62" cy="16.4769231" rx="3.23333333" ry="3.23076923"></ellipse>
                        <ellipse id="Oval" fill="#FB4081" cx="16.49" cy="16.4769231" rx="16.49" ry="16.4769231"></ellipse>
                        <ellipse id="Oval" fill="#FB4081" cx="44.62" cy="44.5846154" rx="16.49" ry="16.4769231"></ellipse>
                        <ellipse id="Oval" fill="#FB4081" cx="72.75" cy="128.907692" rx="16.49" ry="16.4769231"></ellipse>
                        <ellipse id="Oval" fill="#FB4081" cx="72.75" cy="100.8" rx="3.23333333" ry="3.23076923"></ellipse>
                        <ellipse id="Oval" fill="#FB4081" cx="100.88" cy="72.6923077" rx="3.23333333" ry="3.23076923"></ellipse>
                        <ellipse id="Oval" fill="#FB4081" cx="100.88" cy="128.907692" rx="3.23333333" ry="3.23076923"></ellipse>
                        <ellipse id="Oval" fill="#FB4081" cx="100.88" cy="100.8" rx="16.49" ry="16.4769231"></ellipse>
                        <ellipse id="Oval" fill="#FB4081" cx="72.75" cy="72.6923077" rx="16.49" ry="16.4769231"></ellipse>
                        <ellipse id="Oval" fill="#FB4081" cx="72.75" cy="44.5846154" rx="3.23333333" ry="3.23076923"></ellipse>
                        <ellipse id="Oval" fill="#FB4081" cx="100.88" cy="16.4769231" rx="3.23333333" ry="3.23076923"></ellipse>
                        <ellipse id="Oval" fill="#FB4081" cx="72.75" cy="16.4769231" rx="16.49" ry="16.4769231"></ellipse>
                        <ellipse id="Oval" fill="#FB4081" cx="129.01" cy="128.907692" rx="16.49" ry="16.4769231"></ellipse>
                        <ellipse id="Oval" fill="#FB4081" cx="129.01" cy="100.8" rx="3.23333333" ry="3.23076923"></ellipse>
                        <ellipse id="Oval" fill="#FB4081" cx="129.01" cy="72.6923077" rx="16.49" ry="16.4769231"></ellipse>
                        <ellipse id="Oval" fill="#FB4081" cx="129.01" cy="44.5846154" rx="3.23333333" ry="3.23076923"></ellipse>
                        <ellipse id="Oval" fill="#FB4081" cx="129.01" cy="16.4769231" rx="16.49" ry="16.4769231"></ellipse>
                        <ellipse id="Oval" fill="#FB4081" cx="100.88" cy="44.5846154" rx="16.49" ry="16.4769231"></ellipse>
                    </g>
                    <g id="noun_31698_cc-copy" transform="translate(112.500000, 112.500000)">
                        <ellipse id="Oval" fill="#FB4081" cx="16.49" cy="128.907692" rx="16.49" ry="16.4769231"></ellipse>
                        <ellipse id="Oval" fill="#FB4081" cx="16.49" cy="100.8" rx="3.23333333" ry="3.23076923"></ellipse>
                        <ellipse id="Oval" fill="#FB4081" cx="44.62" cy="72.6923077" rx="3.23333333" ry="3.23076923"></ellipse>
                        <ellipse id="Oval" fill="#FB4081" cx="44.62" cy="128.907692" rx="3.23333333" ry="3.23076923"></ellipse>
                        <ellipse id="Oval" fill="#FB4081" cx="44.62" cy="100.8" rx="16.49" ry="16.4769231"></ellipse>
                        <ellipse id="Oval" fill="#FB4081" cx="16.49" cy="72.6923077" rx="16.49" ry="16.4769231"></ellipse>
                        <ellipse id="Oval" fill="#FB4081" cx="16.49" cy="44.5846154" rx="3.23333333" ry="3.23076923"></ellipse>
                        <ellipse id="Oval" fill="#FB4081" cx="44.62" cy="16.4769231" rx="3.23333333" ry="3.23076923"></ellipse>
                        <ellipse id="Oval" fill="#FB4081" cx="16.49" cy="16.4769231" rx="16.49" ry="16.4769231"></ellipse>
                        <ellipse id="Oval" fill="#FB4081" cx="44.62" cy="44.5846154" rx="16.49" ry="16.4769231"></ellipse>
                        <ellipse id="Oval" fill="#FB4081" cx="72.75" cy="128.907692" rx="16.49" ry="16.4769231"></ellipse>
                        <ellipse id="Oval" fill="#FB4081" cx="72.75" cy="100.8" rx="3.23333333" ry="3.23076923"></ellipse>
                        <ellipse id="Oval" fill="#FB4081" cx="100.88" cy="72.6923077" rx="3.23333333" ry="3.23076923"></ellipse>
                        <ellipse id="Oval" fill="#FB4081" cx="100.88" cy="128.907692" rx="3.23333333" ry="3.23076923"></ellipse>
                        <ellipse id="Oval" fill="#FB4081" cx="100.88" cy="100.8" rx="16.49" ry="16.4769231"></ellipse>
                        <ellipse id="Oval" fill="#FB4081" cx="72.75" cy="72.6923077" rx="16.49" ry="16.4769231"></ellipse>
                        <ellipse id="Oval" fill="#FB4081" cx="72.75" cy="44.5846154" rx="3.23333333" ry="3.23076923"></ellipse>
                        <ellipse id="Oval" fill="#FB4081" cx="100.88" cy="16.4769231" rx="3.23333333" ry="3.23076923"></ellipse>
                        <ellipse id="Oval" fill="#FB4081" cx="72.75" cy="16.4769231" rx="16.49" ry="16.4769231"></ellipse>
                        <ellipse id="Oval" fill="#FB4081" cx="129.01" cy="128.907692" rx="16.49" ry="16.4769231"></ellipse>
                        <ellipse id="Oval" fill="#FB4081" cx="129.01" cy="100.8" rx="3.23333333" ry="3.23076923"></ellipse>
                        <ellipse id="Oval" fill="#FB4081" cx="129.01" cy="72.6923077" rx="16.49" ry="16.4769231"></ellipse>
                        <ellipse id="Oval" fill="#FB4081" cx="129.01" cy="44.5846154" rx="3.23333333" ry="3.23076923"></ellipse>
                        <ellipse id="Oval" fill="#FB4081" cx="129.01" cy="16.4769231" rx="16.49" ry="16.4769231"></ellipse>
                        <ellipse id="Oval" fill="#FB4081" cx="100.88" cy="44.5846154" rx="16.49" ry="16.4769231"></ellipse>
                    </g>
                    <g id="noun_31698_cc-copy-3" transform="translate(112.500000, 0.000000)">
                        <ellipse id="Oval" fill="#FB4081" cx="16.49" cy="128.907692" rx="16.49" ry="16.4769231"></ellipse>
                        <ellipse id="Oval" fill="#FB4081" cx="16.49" cy="100.8" rx="3.23333333" ry="3.23076923"></ellipse>
                        <ellipse id="Oval" fill="#FB4081" cx="44.62" cy="72.6923077" rx="3.23333333" ry="3.23076923"></ellipse>
                        <ellipse id="Oval" fill="#FB4081" cx="44.62" cy="128.907692" rx="3.23333333" ry="3.23076923"></ellipse>
                        <ellipse id="Oval" fill="#FB4081" cx="44.62" cy="100.8" rx="16.49" ry="16.4769231"></ellipse>
                        <ellipse id="Oval" fill="#FB4081" cx="16.49" cy="72.6923077" rx="16.49" ry="16.4769231"></ellipse>
                        <ellipse id="Oval" fill="#FB4081" cx="16.49" cy="44.5846154" rx="3.23333333" ry="3.23076923"></ellipse>
                        <ellipse id="Oval" fill="#FB4081" cx="44.62" cy="16.4769231" rx="3.23333333" ry="3.23076923"></ellipse>
                        <ellipse id="Oval" fill="#FB4081" cx="16.49" cy="16.4769231" rx="16.49" ry="16.4769231"></ellipse>
                        <ellipse id="Oval" fill="#FB4081" cx="44.62" cy="44.5846154" rx="16.49" ry="16.4769231"></ellipse>
                        <ellipse id="Oval" fill="#FB4081" cx="72.75" cy="128.907692" rx="16.49" ry="16.4769231"></ellipse>
                        <ellipse id="Oval" fill="#FB4081" cx="72.75" cy="100.8" rx="3.23333333" ry="3.23076923"></ellipse>
                        <ellipse id="Oval" fill="#FB4081" cx="100.88" cy="72.6923077" rx="3.23333333" ry="3.23076923"></ellipse>
                        <ellipse id="Oval" fill="#FB4081" cx="100.88" cy="128.907692" rx="3.23333333" ry="3.23076923"></ellipse>
                        <ellipse id="Oval" fill="#FB4081" cx="100.88" cy="100.8" rx="16.49" ry="16.4769231"></ellipse>
                        <ellipse id="Oval" fill="#FB4081" cx="72.75" cy="72.6923077" rx="16.49" ry="16.4769231"></ellipse>
                        <ellipse id="Oval" fill="#FB4081" cx="72.75" cy="44.5846154" rx="3.23333333" ry="3.23076923"></ellipse>
                        <ellipse id="Oval" fill="#FB4081" cx="100.88" cy="16.4769231" rx="3.23333333" ry="3.23076923"></ellipse>
                        <ellipse id="Oval" fill="#FB4081" cx="72.75" cy="16.4769231" rx="16.49" ry="16.4769231"></ellipse>
                        <ellipse id="Oval" fill="#FB4081" cx="129.01" cy="128.907692" rx="16.49" ry="16.4769231"></ellipse>
                        <ellipse id="Oval" fill="#FB4081" cx="129.01" cy="100.8" rx="3.23333333" ry="3.23076923"></ellipse>
                        <ellipse id="Oval" fill="#FB4081" cx="129.01" cy="72.6923077" rx="16.49" ry="16.4769231"></ellipse>
                        <ellipse id="Oval" fill="#FB4081" cx="129.01" cy="44.5846154" rx="3.23333333" ry="3.23076923"></ellipse>
                        <ellipse id="Oval" fill="#FB4081" cx="129.01" cy="16.4769231" rx="16.49" ry="16.4769231"></ellipse>
                        <ellipse id="Oval" fill="#FB4081" cx="100.88" cy="44.5846154" rx="16.49" ry="16.4769231"></ellipse>
                    </g>
                </g>
            </g>
        </g>
    </g>
</svg>